<?xml version="1.0" encoding="UTF-8" standalone="no" ?>
<!DOCTYPE svg PUBLIC "-//W3C//DTD SVG 1.1//EN" "http://www.w3.org/Graphics/SVG/1.1/DTD/svg11.dtd">
<svg xmlns="http://www.w3.org/2000/svg" xmlns:xlink="http://www.w3.org/1999/xlink" version="1.1" width="139" height="123" viewBox="0 0 139 123" xml:space="preserve">
<desc>Created with Fabric.js 5.3.0</desc>
<defs>
</defs>
<g transform="matrix(1 0 0 1 476.3727959698 277.2483173767)" id="D0d-4qc1sD2GQi3lVmpTQ"  >
<path style="stroke: rgb(102,102,102); stroke-width: 1; stroke-dasharray: none; stroke-linecap: butt; stroke-dashoffset: 0; stroke-linejoin: miter; stroke-miterlimit: 4; fill: rgb(255,255,255); fill-opacity: 0; fill-rule: nonzero; opacity: 1;" vector-effect="non-scaling-stroke"  transform=" translate(0, 0)" d="M 19.34509 13.73405 L -5.642320000000002 2.44942 L -5.642320000000002 -10.44731 L -19.34509 -13.73405" stroke-linecap="round" />
</g>
<g transform="matrix(1.5150775892 0 0 1.5150775892 69.5 61.5)" id="p-kxQlh1XZN0ki03zgcZh"  >
<path style="stroke: rgb(102,102,102); stroke-width: 1; stroke-dasharray: none; stroke-linecap: butt; stroke-dashoffset: 0; stroke-linejoin: miter; stroke-miterlimit: 4; fill: rgb(179,181,179); fill-opacity: 0; fill-rule: nonzero; opacity: 1;" vector-effect="non-scaling-stroke"  transform=" translate(0, 0)" d="M -27.48213 11.50413 C -35.258880000000005 0.7613099999999999 -38.08222 -2.9036600000000004 -43.36679 -9.95263 L -43.36679 -9.95263 C -44.831430000000005 -11.906279999999999 -44.674350000000004 -14.631239999999998 -42.99492 -16.40365 L -32.1862 -27.811279999999996 L -32.1862 -27.811279999999996 C -30.85952 -29.211469999999995 -29.11397 -30.142889999999998 -27.21224 -30.465369999999997 L -4.484470000000002 -34.319399999999995 L 13.01973 -39.19866999999999 L 13.01973 -39.19866999999999 C 13.97819 -39.46583999999999 15.006699999999999 -39.25130999999999 15.77843 -38.623259999999995 C 22.0425 -33.52542999999999 26.13738 -30.259999999999994 33.224019999999996 -21.459089999999996 C 40.047149999999995 -12.985429999999996 41.149829999999994 -10.270789999999996 43.851929999999996 -4.1309099999999965 L 43.851929999999996 -4.1309099999999965 C 44.41627999999999 -2.8485599999999964 44.521559999999994 -1.4109199999999964 44.15004 -0.06003999999999632 L 39.95446 15.195490000000003 L 39.95446 15.195490000000003 C 39.66359 16.253120000000003 39.03957 17.188840000000003 38.174969999999995 17.863850000000003 L 26.672709999999995 26.843850000000003 L 16.342429999999993 37.46611 L 16.342429999999993 37.46611 C 15.195189999999993 38.64578 13.619599999999993 39.31131 11.974069999999994 39.31131 L -13.547010000000007 39.31131 L -13.547010000000007 39.31131 C -14.451380000000007 39.3078 -15.254900000000006 38.73352 -15.551060000000007 37.87901 C -18.679370000000006 28.85293 -18.904000000000007 23.35395 -27.482110000000006 11.50413 z" stroke-linecap="round" />
</g>
<g transform="matrix(1 0 0 1 438.7349583012 211.1838790932)" id="SOJ0-quzwlA338dcFbP1m"  >
<path style="stroke: rgb(102,102,102); stroke-width: 1; stroke-dasharray: none; stroke-linecap: butt; stroke-dashoffset: 0; stroke-linejoin: miter; stroke-miterlimit: 4; fill: rgb(255,255,255); fill-opacity: 0; fill-rule: nonzero; opacity: 1;" vector-effect="non-scaling-stroke"  transform=" translate(0, 0)" d="M 0 0" stroke-linecap="round" />
</g>
<g transform="matrix(1 0 0 1 355.4528424322 199.358974359)" id="zOJXUrilO98BT-0lcaa5n"  >
<path style="stroke: rgb(102,102,102); stroke-width: 1; stroke-dasharray: none; stroke-linecap: butt; stroke-dashoffset: 0; stroke-linejoin: miter; stroke-miterlimit: 4; fill: rgb(255,255,255); fill-opacity: 0; fill-rule: nonzero; opacity: 1;" vector-effect="non-scaling-stroke"  transform=" translate(0, 0)" d="M 10.01581 -33.28222 L 15.717880000000001 -10.212950000000003 L -15.71789 12.356319999999997 L -6.045350000000001 26.865139999999997 L -15.71789 33.282219999999995" stroke-linecap="round" />
</g>
<g transform="matrix(1 0 0 1 434.4584382872 305.7411838791)" id="s3FcsoBAl6WAce_NJ6KT3"  >
<path style="stroke: rgb(102,102,102); stroke-width: 1; stroke-dasharray: none; stroke-linecap: butt; stroke-dashoffset: 0; stroke-linejoin: miter; stroke-miterlimit: 4; fill: rgb(255,255,255); fill-opacity: 0; fill-rule: nonzero; opacity: 1;" vector-effect="non-scaling-stroke"  transform=" translate(0, 0)" d="M -17.733 14.25882 L 4.776519999999998 3.7802299999999995 L 10.172539999999998 -14.25881 L 17.732989999999997 -9.922540000000001" stroke-linecap="round" />
</g>
<g transform="matrix(1 0 0 1 392.1410579345 237.4005554147)" id="pvh9n6XNq_2pJPDpPxWtV"  >
<path style="stroke: rgb(102,102,102); stroke-width: 1; stroke-dasharray: none; stroke-linecap: butt; stroke-dashoffset: 0; stroke-linejoin: miter; stroke-miterlimit: 4; fill: rgb(255,255,255); fill-opacity: 0; fill-rule: nonzero; opacity: 1;" vector-effect="non-scaling-stroke"  transform=" translate(0, 0)" d="M -10.88161 -6.06554 L 6.85139 -6.06554 L 10.881620000000002 6.06555" stroke-linecap="round" />
</g>
<g transform="matrix(1 0 0 1 486.5782463485 244.3847607053)" id="p-f-ncwuwqk16KvhTQRWK"  >
<path style="stroke: rgb(102,102,102); stroke-width: 1; stroke-dasharray: none; stroke-linecap: butt; stroke-dashoffset: 0; stroke-linejoin: miter; stroke-miterlimit: 4; fill: rgb(255,255,255); fill-opacity: 0; fill-rule: nonzero; opacity: 1;" vector-effect="non-scaling-stroke"  transform=" translate(0, 0)" d="M 19.87799 13.54975 L -19.877999999999997 -0.9186600000000009 L -19.877999999999997 -13.549750000000001 L -15.041729999999998 -13.549750000000001" stroke-linecap="round" />
</g>
<g transform="matrix(1 0 0 1 38.1101694915 118.0536723164)" id="GXPMEp6llRboGA06DVAfj"  >
<path style="stroke: rgb(102,102,102); stroke-width: 0; stroke-dasharray: none; stroke-linecap: butt; stroke-dashoffset: 0; stroke-linejoin: miter; stroke-miterlimit: 4; fill: rgb(179,181,179); fill-opacity: 0; fill-rule: nonzero; opacity: 1;" vector-effect="non-scaling-stroke"  transform=" translate(-1.4124261904, -1.4124261904)" d="M 0 0 L 2.82486 0 L 2.82486 2.82486 L 0 2.82486 z" stroke-linecap="round" />
</g>
<g transform="matrix(1 0 0 1 60.8953155628 66.2118644068)" id="YtlsDUT4atR4NNoztX24H"  >
<path style="stroke: rgb(102,102,102); stroke-width: 1; stroke-dasharray: none; stroke-linecap: butt; stroke-dashoffset: 0; stroke-linejoin: miter; stroke-miterlimit: 4; fill: rgb(255,255,255); fill-opacity: 0; fill-rule: nonzero; opacity: 1;" vector-effect="non-scaling-stroke"  transform=" translate(0, 0)" d="M 3.35563 54.48093 L 11.16807 27.55366 C 14.970040000000001 14.449340000000001 13.7317 0.3967300000000016 7.69658 -11.84073 L -13.33222 -54.480940000000004" stroke-linecap="round" />
</g>
</svg>