<?xml version="1.0" encoding="UTF-8" standalone="no" ?>
<!DOCTYPE svg PUBLIC "-//W3C//DTD SVG 1.1//EN" "http://www.w3.org/Graphics/SVG/1.1/DTD/svg11.dtd">
<svg xmlns="http://www.w3.org/2000/svg" xmlns:xlink="http://www.w3.org/1999/xlink" version="1.1" width="500" height="500" viewBox="0 0 500 500" xml:space="preserve">
<desc>Created with Fabric.js 5.3.0</desc>
<defs>
</defs>
<g transform="matrix(5.1194783255 0 0 5.1194783255 243.2008430658 250)" id="rLIIAqxrm_MPy47iRCBVR"  >
<path style="stroke: rgb(0,0,0); stroke-width: 1; stroke-dasharray: none; stroke-linecap: butt; stroke-dashoffset: 0; stroke-linejoin: miter; stroke-miterlimit: 4; fill: none; fill-rule: nonzero; opacity: 1;" vector-effect="non-scaling-stroke"  transform=" translate(0, 0)" d="M -39.89293 40.63054 C -39.40847 40.06195 -39.15481 39.33238 -39.18205 38.58588 L -41.03644 -12.229209999999995 L -41.03644 -12.229209999999995 C -41.05086 -12.624269999999996 -41.12809 -13.014519999999994 -41.26524 -13.385289999999994 L -45.84093 -25.755239999999993 L -45.84093 -25.755239999999993 C -46.13955 -26.56252999999999 -46.064750000000004 -27.460699999999992 -45.63671 -28.207469999999994 C -45.20867 -28.954249999999995 -44.47146 -29.472729999999995 -43.62394 -29.623069999999995 L -28.85467 -32.24292 L -20.83204 -47.84746 L -20.83204 -47.84746 C -20.74181 -48.02297 -20.53803 -48.10765 -20.34998 -48.047779999999996 L 3.4437800000000003 -40.47206 L 3.4437800000000003 -40.47206 C 3.6207000000000003 -40.415729999999996 3.7800700000000003 -40.314659999999996 3.9064500000000004 -40.17865 L 14.642240000000001 -28.624599999999997 L 14.642240000000001 -28.624599999999997 C 15.016900000000001 -28.221379999999996 15.132710000000001 -27.641609999999996 14.941690000000001 -27.12541 L 6.920110000000001 -5.447199999999999 L 3.066880000000001 15.003880000000002 L 3.066880000000001 15.003880000000002 C 3.020440000000001 15.250370000000002 3.1461500000000013 15.497160000000003 3.372840000000001 15.604510000000003 C 3.599530000000001 15.711860000000003 3.870110000000001 15.652750000000003 4.031380000000001 15.460640000000003 L 20.015 -3.5802099999999957 L 33.75056 -11.553309999999996 L 33.75056 -11.553309999999996 C 34.10089 -11.756669999999996 34.5402 -11.723729999999996 34.85629 -11.470409999999996 C 35.172380000000004 -11.217089999999995 35.30022 -10.795509999999997 35.17806 -10.409289999999995 L 29.35273 8.007630000000006 L 29.35273 19.359470000000005 L 26.39997 34.15681000000001 L 37.59144 37.528690000000005 L 46.02135 48.06689 L -44.268299999999996 48.06689 L -44.268299999999996 48.06689 C -44.62137 48.06689 -44.94222 47.86163 -45.090219999999995 47.54108 C -45.23822 47.220530000000004 -45.18637 46.84319 -44.95739 46.57444 z" stroke-linecap="round" />
</g>
<g transform="matrix(1.004837226 0 0 1.004837226 112.6472986689 290.6811116092)" id="dhPrxWYvGnt7rc5vou5A_"  >
<path style="stroke: rgb(0,0,0); stroke-width: 1; stroke-dasharray: none; stroke-linecap: butt; stroke-dashoffset: 0; stroke-linejoin: miter; stroke-miterlimit: 4; fill: rgb(255,255,255); fill-opacity: 0; fill-rule: nonzero; opacity: 1;" vector-effect="non-scaling-stroke"  transform=" translate(0, 0)" d="M -16.68766 -205.40265 L 11.43327 -58.424739999999986 C 14.92836 -40.15716999999999 16.68766 -21.59995999999999 16.68766 -3.001039999999989 L 16.68766 205.40265000000002" stroke-linecap="round" />
</g>
</svg>